<svg id="Layer_1" data-name="Layer 1" xmlns="http://www.w3.org/2000/svg" viewBox="0 0 227.29 42.57"><defs><style>.cls-1,.cls-5{fill:#fff;}.cls-1,.cls-2{fill-rule:evenodd;}.cls-2,.cls-3{fill:#f43b86;}.cls-4{isolation:isolate;}</style></defs><path class="cls-1" d="M44.21,10.73C37.38,11.08,33.64,5.57,26.92,7c-6.92,1.52-12,9.45-14.5,16.07C9.84,30,10.7,35.49,13.68,37.72c4.95,3.69,13.6-4.15,18-7s8.19-4.9,12.59-5c4.39.1,8.24,2.12,12.58,5s13,10.72,18,7c3-2.23,3.84-7.69,1.27-14.61C73.62,16.54,68.47,8.56,61.59,7S51.08,11,44.21,10.73Z"/><path class="cls-2" d="M28,11.49h3.79v3.69L30,17.05l-1.87-1.87Zm4.4,4.34h3.74v3.79H32.43l-1.87-1.87Zm-.61,4.5v3.74H28V20.33l1.87-1.87Zm-4.44-.66H23.69V15.83h3.69l1.87,1.87Z"/><path class="cls-2" d="M58.51,11.49a2.22,2.22,0,1,1-2.22,2.22h0a2.24,2.24,0,0,1,2.22-2.22Z"/><path class="cls-2" d="M58.51,19.47a2.23,2.23,0,1,1-2.22,2.23h0a2.24,2.24,0,0,1,2.22-2.23Z"/><path class="cls-2" d="M52.29,17.7a2.23,2.23,0,1,1,2.23,2.23h0a2.18,2.18,0,0,1-2.23-2.23Z"/><path class="cls-2" d="M60.28,17.7a2.23,2.23,0,1,1,2.22,2.23h0a2.18,2.18,0,0,1-2.22-2.23Z"/><path class="cls-3" d="M39.86,17.5h3.39a.34.34,0,0,1,.35.35v1.37a.34.34,0,0,1-.35.35H39.86a.34.34,0,0,1-.35-.35V17.85A.34.34,0,0,1,39.86,17.5Z"/><path class="cls-3" d="M45.27,17.5h3.38a.34.34,0,0,1,.36.35v1.37a.34.34,0,0,1-.36.35H45.27a.35.35,0,0,1-.36-.35V17.85A.35.35,0,0,1,45.27,17.5Z"/><path class="cls-1" d="M20.1,34.28c-7,.76-10.11-6.47-2.43-20.72a36.5,36.5,0,0,0-5.3,9.5C9.79,30,10.65,35.44,13.63,37.67c4.95,3.69,13.6-4.15,18-7s8.19-4.9,12.59-5c4.39.1,8.23,2.12,12.58,5s13,10.72,18,7c3-2.23,3.84-7.69,1.27-14.61a37.17,37.17,0,0,0-5.21-9.5c7.68,14.25,4.6,21.48-2.43,20.72-8.18-.91-12-9.8-24.1-10C32.13,24.48,28.29,33.37,20.1,34.28Z"/><path class="cls-1" d="M21.21,9.87c9.35-5.76,16.27,2.43,23,1.92,6.72.56,13.69-7.63,23-1.92A13.5,13.5,0,0,0,61.49,7C54.77,5.52,51,11,44.16,10.73,37.33,11.08,33.59,5.57,26.87,7A14.26,14.26,0,0,0,21.21,9.87Z"/><g class="cls-4"><path class="cls-5" d="M89.88,14.52a4.71,4.71,0,0,1,1.78,1.64V14.11H96.1V28.58a8.19,8.19,0,0,1-.79,3.63,6.07,6.07,0,0,1-2.42,2.58,7.82,7.82,0,0,1-4,1,8.34,8.34,0,0,1-5.22-1.52,5.73,5.73,0,0,1-2.29-4.12h4.39a2.11,2.11,0,0,0,1,1.32,3.6,3.6,0,0,0,1.92.48,3,3,0,0,0,2.2-.8,3.36,3.36,0,0,0,.82-2.53v-2a5,5,0,0,1-1.8,1.65,5.44,5.44,0,0,1-2.67.64,5.9,5.9,0,0,1-3.25-.93,6.34,6.34,0,0,1-2.3-2.62,8.82,8.82,0,0,1-.84-3.94,8.67,8.67,0,0,1,.84-3.92,6.28,6.28,0,0,1,2.3-2.6,6,6,0,0,1,3.25-.91A5.65,5.65,0,0,1,89.88,14.52Zm.86,4.21a3.13,3.13,0,0,0-4.5,0,3.6,3.6,0,0,0-.92,2.61A3.71,3.71,0,0,0,86.24,24a3,3,0,0,0,2.25,1,3,3,0,0,0,2.25-1,3.64,3.64,0,0,0,.92-2.62A3.66,3.66,0,0,0,90.74,18.73Z"/><path class="cls-5" d="M98,17.41a6.28,6.28,0,0,1,2.3-2.6,6,6,0,0,1,3.25-.91,5.61,5.61,0,0,1,2.68.62A4.64,4.64,0,0,1,108,16.16V14.11h4.45v14.5H108V26.55a4.69,4.69,0,0,1-1.8,1.64,5.54,5.54,0,0,1-2.69.63,5.85,5.85,0,0,1-3.22-.93A6.34,6.34,0,0,1,98,25.27a8.69,8.69,0,0,1-.85-3.94A8.54,8.54,0,0,1,98,17.41Zm9.09,1.32a3.12,3.12,0,0,0-4.49,0,3.56,3.56,0,0,0-.93,2.61,3.67,3.67,0,0,0,.93,2.64,3,3,0,0,0,2.24,1,3,3,0,0,0,2.25-1,3.6,3.6,0,0,0,.92-2.62A3.62,3.62,0,0,0,107.05,18.73Z"/><path class="cls-5" d="M137.11,15.59a6.22,6.22,0,0,1,1.6,4.55v8.47h-4.42V20.73a3,3,0,0,0-.74-2.16,2.66,2.66,0,0,0-2-.77,2.69,2.69,0,0,0-2,.77,3,3,0,0,0-.74,2.16v7.88h-4.41V20.73a3,3,0,0,0-.74-2.16,2.69,2.69,0,0,0-2-.77,2.66,2.66,0,0,0-2,.77,3,3,0,0,0-.74,2.16v7.88h-4.45V14.11h4.45v1.82a4.7,4.7,0,0,1,1.76-1.44A5.5,5.5,0,0,1,123,14a6.06,6.06,0,0,1,2.92.7,5.07,5.07,0,0,1,2,2,5.74,5.74,0,0,1,2-1.95,5.49,5.49,0,0,1,2.83-.76A5.73,5.73,0,0,1,137.11,15.59Z"/><path class="cls-5" d="M154.09,22.42H144a3,3,0,0,0,.87,2.07,2.64,2.64,0,0,0,1.88.71,2.32,2.32,0,0,0,2.31-1.4h4.73a6.48,6.48,0,0,1-1.31,2.57,6.7,6.7,0,0,1-2.38,1.8,7.67,7.67,0,0,1-3.19.65,7.88,7.88,0,0,1-3.8-.91,6.48,6.48,0,0,1-2.59-2.6,8,8,0,0,1-.94-3.95,8.15,8.15,0,0,1,.92-3.95,6.42,6.42,0,0,1,2.59-2.6,8.43,8.43,0,0,1,7.56,0,6.4,6.4,0,0,1,2.56,2.52,7.74,7.74,0,0,1,.92,3.82A11.77,11.77,0,0,1,154.09,22.42ZM149.62,20a2.27,2.27,0,0,0-.78-1.82,2.88,2.88,0,0,0-2-.68,2.83,2.83,0,0,0-1.88.65,2.88,2.88,0,0,0-.95,1.85Z"/><path class="cls-5" d="M161.57,14.64a5,5,0,0,1,2.6-.69v4.71H163a3.7,3.7,0,0,0-2.49.71,3.16,3.16,0,0,0-.83,2.51v6.73h-4.45V14.11h4.45v2.42A5.93,5.93,0,0,1,161.57,14.64Z"/><path class="cls-5" d="M171.21,14.52a5.61,5.61,0,0,1,2.68-.62,6,6,0,0,1,3.25.91,6.35,6.35,0,0,1,2.3,2.6,8.67,8.67,0,0,1,.84,3.92,8.82,8.82,0,0,1-.84,3.94,6.41,6.41,0,0,1-2.3,2.62,5.92,5.92,0,0,1-3.25.93,5.48,5.48,0,0,1-2.66-.63,4.81,4.81,0,0,1-1.81-1.61v8.94H165V14.11h4.44v2.05A4.9,4.9,0,0,1,171.21,14.52Zm3.63,4.2a3.06,3.06,0,0,0-2.28-.95,3,3,0,0,0-2.24,1,3.63,3.63,0,0,0-.93,2.63,3.6,3.6,0,0,0,.93,2.62,3.11,3.11,0,0,0,4.5,0,3.63,3.63,0,0,0,.94-2.64A3.6,3.6,0,0,0,174.84,18.72Z"/><path class="cls-5" d="M185.74,9.38V28.61h-4.45V9.38Z"/><path class="cls-5" d="M187.59,17.41a6.35,6.35,0,0,1,2.3-2.6,6,6,0,0,1,3.25-.91,5.65,5.65,0,0,1,2.69.62,4.64,4.64,0,0,1,1.78,1.64V14.11h4.44v14.5h-4.44V26.55a4.69,4.69,0,0,1-1.8,1.64,5.57,5.57,0,0,1-2.69.63,5.88,5.88,0,0,1-3.23-.93,6.41,6.41,0,0,1-2.3-2.62,8.82,8.82,0,0,1-.84-3.94A8.67,8.67,0,0,1,187.59,17.41Zm9.1,1.32a3.13,3.13,0,0,0-4.5,0,3.6,3.6,0,0,0-.92,2.61,3.71,3.71,0,0,0,.92,2.64,3.11,3.11,0,0,0,4.5,0,3.64,3.64,0,0,0,.92-2.62A3.66,3.66,0,0,0,196.69,18.73Z"/><path class="cls-5" d="M218.76,14.11l-9.09,21.38h-4.78l3.32-7.38-5.9-14h5l3.35,9.07L214,14.11Z"/></g><g class="cls-4"><path class="cls-5" d="M197.29,11.38a.79.79,0,0,1-.26-.59.82.82,0,0,1,.26-.61,1,1,0,0,1,1.31,0,.82.82,0,0,1,.26.61.79.79,0,0,1-.26.59,1,1,0,0,1-1.31,0Z"/><path class="cls-5" d="M201.12,11.19a3.16,3.16,0,0,1-1.61-2.83,3.21,3.21,0,0,1,.43-1.66,3.17,3.17,0,0,1,1.18-1.15,3.28,3.28,0,0,1,1.64-.42,3.24,3.24,0,0,1,1.63.42,2.94,2.94,0,0,1,1.17,1.15,3.44,3.44,0,0,1,0,3.33,3.1,3.1,0,0,1-1.17,1.16,3.39,3.39,0,0,1-3.27,0ZM204,9.7a1.94,1.94,0,0,0,.45-1.34A1.91,1.91,0,0,0,204,7a1.74,1.74,0,0,0-2.43,0,1.88,1.88,0,0,0-.46,1.34,1.88,1.88,0,0,0,.46,1.34,1.73,1.73,0,0,0,2.43,0Z"/><path class="cls-5" d="M210.06,11.54l-1.31-2.38h-.37v2.38h-1.54V5.22h2.59a2.77,2.77,0,0,1,1.27.27,1.83,1.83,0,0,1,.79.71,2,2,0,0,1,.26,1A1.85,1.85,0,0,1,210.34,9l1.46,2.5Zm-1.68-3.47h1a.86.86,0,0,0,.63-.21.78.78,0,0,0,.21-.58.77.77,0,0,0-.21-.57.86.86,0,0,0-.63-.21h-1Z"/><path class="cls-5" d="M216.9,7.22a1.08,1.08,0,0,0-.49-.48,1.6,1.6,0,0,0-.75-.17,1.55,1.55,0,0,0-1.19.49A1.88,1.88,0,0,0,214,8.37a1.87,1.87,0,0,0,.47,1.37,1.74,1.74,0,0,0,1.3.49,1.59,1.59,0,0,0,1-.29,1.63,1.63,0,0,0,.57-.83h-1.95V8h3.34V9.41a2.88,2.88,0,0,1-.58,1.07,3,3,0,0,1-1,.8,3.12,3.12,0,0,1-1.42.31,3.41,3.41,0,0,1-1.67-.41A2.91,2.91,0,0,1,212.86,10a3.39,3.39,0,0,1-.41-1.67,3.41,3.41,0,0,1,.41-1.67A2.91,2.91,0,0,1,214,5.56a3.35,3.35,0,0,1,1.66-.41,3.17,3.17,0,0,1,1.91.55,2.61,2.61,0,0,1,1,1.52Z"/></g></svg>